<svg id="Layer_1" data-name="Layer 1" xmlns="http://www.w3.org/2000/svg" viewBox="0 0 500 500"><defs><style>.cls-1{fill:#94dd03;}.cls-2{fill:#c2c2c2;}.cls-3{fill:#b8b8b8;}.cls-4{fill:#ebebeb;}.cls-5{fill:#f5f5f5;}.cls-6{fill:#fff;}.cls-7{fill:#b3fc22;}.cls-8{fill:#a4f604;}.cls-9{fill:#d6d6d6;}.cls-10{fill:#ccc;}.cls-11{fill:#e0e0e0;}</style></defs><path class="cls-1" d="M336,198.34,250.65,250l-.71,103.29,85.86-47.86S336,202.09,336,198.34Z"/><path class="cls-2" d="M249.94,353.27c.12,31.86-.11,64.42,0,96.28a40.59,40.59,0,0,0,20.89-4.88c23.71-12.85,42.37-22.19,65.34-36.33-.06-34.22-.11-68.71-.17-102.93Z"/><path class="cls-3" d="M431.14,249.65S336.1,305,336,305.41c.06,34.22.11,68.71.17,102.93,23.11-13.36,51.28-29,73.87-43.17,13.07-8.21,20.37-21.13,21.07-37.09Z"/><path class="cls-4" d="M159.57,197.51c-27.53-16-55.66-32.43-83.2-48.46a41.53,41.53,0,0,1,14.49-15.33c23-14.11,45.22-28.23,69-41.06l88.82,51.49C231.68,154.06,159.84,197.69,159.57,197.51Z"/><path class="cls-5" d="M159.81,92.66s87.11,52.56,87.55,52.42c30.48-18.2,58.15-33.38,88.64-51.59-24.1-13.39-44.33-25.38-68.89-37.88-14.21-7.23-29.58-6.85-44.18,1Z"/><path class="cls-6" d="M336.17,198.34c27.54-16,55.66-32.43,83.2-48.46a41.53,41.53,0,0,0-14.49-15.33c-23-14.11-45.22-28.23-68.95-41.06L247.11,145C264.07,154.89,335.9,198.52,336.17,198.34Z"/><path class="cls-7" d="M336,198.34c-13.8,9.94-70,42.48-85.33,51.64-30.11-16.93-61-35.54-91.08-52.47L247.11,145S332.72,196.48,336,198.34Z"/><path class="cls-8" d="M159.57,197.51c15.41,7.2,75.61,43.54,91.08,52.47-.11,34.55-.6,68.74-.71,103.29l-90.59-50S159.53,201.26,159.57,197.51Z"/><path class="cls-9" d="M69.82,247.62l89.75,55.2-.18,102.67L90.93,363.14C77.85,354.93,70.55,342,69.85,326.05Z"/><path class="cls-10" d="M249.94,353.27v96.28a41.37,41.37,0,0,1-20.51-4.88c-23.72-12.85-47.06-25.05-70-39.18l.18-102.67C176.63,312.55,249.94,353.27,249.94,353.27Z"/><path class="cls-11" d="M159.57,197.51s-55.73-32.92-83.16-48.63a39.3,39.3,0,0,0-6,20.1c-.55,26.45-1.48,52.25-.57,78.72l89.74,55.12Z"/></svg>